<svg xmlns="http://www.w3.org/2000/svg" width="120" height="120" viewBox="0 0 120 120">
  <path id="mission_icon" d="M43.287-32.187,47.3-20.163,25.379,1.754A5.806,5.806,0,1,0,33.59,9.965L55.507-11.952,67.531-7.943a4.978,4.978,0,0,0,5.09-1.2l15.4-15.4a4.975,4.975,0,0,0-1.945-8.235L72.614-37.27,68.126-50.734a4.974,4.974,0,0,0-8.236-1.945l-15.4,15.4a5.72,5.72,0,0,0-1.457,3.519A5.965,5.965,0,0,0,43.287-32.187ZM29.484-19.3a25.03,25.03,0,0,1,5.388.615l3.566-3.566-2.5-7.488c-.058-.176-.048-.356-.1-.535a36.713,36.713,0,0,0-6.36-.641A36.774,36.774,0,1,0,66.256,5.857a36.849,36.849,0,0,0-.641-6.373c-.174-.051-.361-.029-.532-.087L57.6-3.1,54.031.469a25.033,25.033,0,0,1,.612,5.388A25.161,25.161,0,1,1,29.484-19.3Zm57.2,7.04L78.1-3.673a12.524,12.524,0,0,1-1.045.859,48.32,48.32,0,0,1,.82,8.671,48.387,48.387,0,0,1-96.774,0A48.442,48.442,0,0,1,29.484-42.53a48.332,48.332,0,0,1,8.734.83,12.851,12.851,0,0,1,.8-1.055l8.589-8.589a71.958,71.958,0,0,0-18.111-2.8h-.01a59.99,59.99,0,1,0,57.2,41.879Z" transform="translate(30.516 54.141)" fill="#f8fafd"/>
</svg>
